<?xml version="1.0" encoding="UTF-8"?> <!-- Minimal icon sprite for the demo --> <svg xmlns="http://www.w3.org/2000/svg" style="display:none"> <symbol id="icon-home" viewBox="0 0 24 24"> <path d="M12 3l9 8h-3v9h-5v-6H11v6H6v-9H3l9-8z"/> </symbol> <symbol id="icon-x" viewBox="0 0 24 24"> <path d="M18.3 5.7L12 12l6.3 6.3-1.4 1.4L10.6 13.4 4.3 19.7 2.9 18.3 9.2 12 2.9 5.7 4.3 4.3l6.3 6.3 6.3-6.3z"/> </symbol> <symbol id="icon-check" viewBox="0 0 24 24"> <path d="M9 16.2l-3.5-3.6L4 14.1 9 19l12-12-1.4-1.4z"/> </symbol> <symbol id="icon-upload" viewBox="0 0 24 24"> <path d="M5 20h14v2H5zm7-18l6 6h-4v6h-4V8H6z"/> </symbol> <symbol id="icon-trash" viewBox="0 0 24 24"> <path d="M3 6h18v2H3zm2 3h14l-1.2 12.3A2 2 0 0 1 15.8 23H8.2a2 2 0 0 1-2-1.7L5 9zm5-6h4l1 2H9l1-2z"/> </symbol> <symbol id="icon-file" viewBox="0 0 24 24"> <path d="M14 2H6a2 2 0 0 0-2 2v16c0 1.1.9 2 2 2h12a2 2 0 0 0 2-2V8zM14 2v6h6"/> </symbol> <symbol id="icon-pdf" viewBox="0 0 24 24"> <path d="M4 2h10l6 6v14a2 2 0 0 1-2 2H4a2 2 0 0 1-2-2V4c0-1.1.9-2 2-2zM14 2v6h6M6 12h4v-2H6v2zm0 4h6v-2H6v2zm8-6h4v-2h-4v2zm0 4h4v-2h-4v2z"/> </symbol> </svg>