<svg width="30" height="30" viewBox="0 0 30 30" fill="none" xmlns="http://www.w3.org/2000/svg"> <path d="M24.8579 0H5.14213C2.30221 0 0 2.30254 0 5.14286V24.8571C0 27.6975 2.30221 30 5.14212 30H24.8579C27.6978 30 30 27.6975 30 24.8571V5.14286C30 2.30254 27.6978 0 24.8579 0Z" fill="url(#paint0_linear_393_17691)"/> <path d="M18.3849 18.7817V20.9679C18.3849 21.2391 18.161 21.4569 17.8822 21.4569H12.2977C12.0189 21.4569 11.795 21.2391 11.795 20.9679V18.7817C11.795 18.5105 11.5711 18.2927 11.2923 18.2927H8.46631V24.2061C8.46631 24.4773 8.6902 24.6951 8.969 24.6951H21.2152C21.494 24.6951 21.7178 24.4773 21.7178 24.2061V18.2927H18.8918C18.613 18.2927 18.3891 18.5105 18.3891 18.7817" fill="white"/> <path d="M25.281 17.4816L15.3876 5.48674C15.1886 5.24425 14.8074 5.24425 14.6083 5.48674L4.71492 17.4816C4.4481 17.8077 4.68104 18.2927 5.10456 18.2927H8.35295L14.6083 10.7253C14.8116 10.4829 15.1886 10.4829 15.3876 10.7253L21.643 18.2927H24.8956C25.3191 18.2927 25.5521 17.8077 25.2853 17.4816" fill="white"/> <defs> <linearGradient id="paint0_linear_393_17691" x1="15.7455" y1="-0.170693" x2="15.7455" y2="30.001" gradientUnits="userSpaceOnUse"> <stop stop-color="#E11837"/> <stop offset="0.34" stop-color="#DC1734"/> <stop offset="0.73" stop-color="#CD152D"/> <stop offset="1" stop-color="#C01327"/> </linearGradient> </defs> </svg>